<?xml version="1.0" encoding="utf-8"?>
<svg version="1.1" xmlns:xlink="http://www.w3.org/1999/xlink" width="57px" height="50px" xmlns="http://www.w3.org/2000/svg">
  <g transform="matrix(1 0 0 1 -85 -103 )">
    <path d="M 53.81919642857143 19.21164772727273  C 55.02790178571429 18.28835227272727  56.088169642857146 17.25852272727273  57 16.12215909090909  L 57 44.31818181818182  C 57 45.88068181818182  56.50167410714286 47.21827651515152  55.50502232142857 48.330965909090914  C 54.50837053571429 49.4436553030303  53.31026785714287 50  51.910714285714285 50  L 5.089285714285714 50  C 3.6897321428571432 50  2.4916294642857144 49.4436553030303  1.4949776785714288 48.330965909090914  C 0.49832589285714307 47.21827651515152  0 45.88068181818182  0 44.31818181818182  L 0 16.12215909090909  C 0.9330357142857145 17.282196969696965  2.0039062500000004 18.31202651515151  3.212611607142857 19.21164772727273  C 10.888950892857144 25.035511363636363  16.158482142857142 29.119318181818183  19.021205357142858 31.463068181818183  C 20.229910714285715 32.45738636363637  21.21065848214286 33.2327178030303  21.963448660714285 33.7890625  C 22.716238839285715 34.34540719696969  23.718191964285715 34.913589015151516  24.969308035714285 35.49360795454546  C 26.22042410714286 36.07362689393939  27.38671875 36.36363636363637  28.468191964285715 36.36363636363637  L 28.5 36.36363636363637  L 28.531808035714285 36.36363636363637  C 29.613281250000007 36.36363636363637  30.779575892857142 36.07362689393939  32.030691964285715 35.49360795454546  C 33.28180803571429 34.913589015151516  34.28376116071429 34.34540719696969  35.036551339285715 33.7890625  C 35.789341517857146 33.2327178030303  36.770089285714285 32.45738636363637  37.978794642857146 31.463068181818183  C 41.58370535714286 28.551136363636363  46.86383928571429 24.467329545454547  53.81919642857143 19.21164772727273  Z M 55.48911830357143 1.6690340909090884  C 56.496372767857146 2.781723484848481  57 4.1193181818181825  57 5.6818181818181825  C 57 7.552083333333326  56.48046875000001 9.339488636363635  55.44140625 11.044034090909088  C 54.40234375 12.748579545454547  53.10881696428572 14.204545454545453  51.560825892857146 15.411931818181818  C 43.58761160714286 21.59090909090909  38.62555803571429 25.437973484848484  36.67466517857143 26.953125  C 36.46261160714286 27.118844696969695  36.011997767857146 27.47987689393939  35.322823660714285 28.036221590909093  C 34.63364955357143 28.592566287878785  34.06110491071429 29.04237689393939  33.605189732142854 29.385653409090907  C 33.14927455357143 29.72892992424242  32.597935267857146 30.113636363636363  31.951171875 30.53977272727273  C 31.304408482142858 30.965909090909093  30.694754464285715 31.285511363636363  30.12220982142857 31.49857954545454  C 29.54966517857143 31.71164772727273  29.019531250000004 31.818181818181817  28.531808035714285 31.818181818181817  L 28.5 31.818181818181817  L 28.468191964285715 31.818181818181817  C 27.98046875 31.818181818181817  27.450334821428573 31.71164772727273  26.877790178571427 31.49857954545454  C 26.305245535714285 31.285511363636363  25.695591517857146 30.965909090909093  25.048828125 30.53977272727273  C 24.402064732142858 30.113636363636363  23.850725446428573 29.72892992424242  23.394810267857142 29.385653409090907  C 22.938895089285715 29.04237689393939  22.366350446428573 28.592566287878785  21.677176339285715 28.036221590909093  C 20.98800223214286 27.47987689393939  20.537388392857146 27.118844696969695  20.325334821428573 26.953125  C 18.395647321428573 25.437973484848484  15.617745535714285 23.277698863636363  11.991629464285714 20.472301136363637  C 8.365513392857142 17.666903409090907  6.1919642857142865 15.98011363636363  5.470982142857143 15.411931818181818  C 4.15625 14.41761363636363  2.9157366071428577 13.050426136363635  1.7494419642857146 11.310369318181818  C 0.5831473214285716 9.5703125  0 7.954545454545453  0 6.4630681818181825  C 0 4.616477272727271  0.44001116071428586 3.0776515151515085  1.3200334821428574 1.8465909090909116  C 2.2000558035714293 0.6155303030302983  3.456473214285715 0  5.089285714285714 0  L 51.910714285714285 0  C 53.2890625 0  54.481863839285715 0.5563446969696906  55.48911830357143 1.6690340909090884  Z " fill-rule="nonzero" fill="#81d3f8" stroke="none" transform="matrix(1 0 0 1 85 103 )" />
  </g>
</svg>